<?xml version="1.0" encoding="UTF-8"?>
<!DOCTYPE svg PUBLIC "-//W3C//DTD SVG 1.1//EN" "http://www.w3.org/Graphics/SVG/1.1/DTD/svg11.dtd">
<!-- Creator: CorelDRAW 2020 (64-Bit) -->
<svg xmlns="http://www.w3.org/2000/svg" xml:space="preserve" width="88.9mm" height="50.8mm" version="1.1" style="shape-rendering:geometricPrecision; text-rendering:geometricPrecision; image-rendering:optimizeQuality; fill-rule:evenodd; clip-rule:evenodd"
viewBox="0 0 8890 5080"
 xmlns:xlink="http://www.w3.org/1999/xlink"
 xmlns:xodm="http://www.corel.com/coreldraw/odm/2003">
 <defs>
  <style type="text/css">
   <![CDATA[
    .fil0 {fill:#24CCD4}
    .fil1 {fill:#E28EF1}
   ]]>
  </style>
 </defs>
 <g id="Layer_x0020_1">
  <metadata id="CorelCorpID_0Corel-Layer"/>
  <g id="_2283245729152">
   <path class="fil0" d="M2742.2 4128c-465.54,452.15 -1233.9,482.71 -1723.71,46.63 -342.62,-305.04 -537.11,-724.48 -576.53,-1178.48 -61.57,-824.33 370.84,-1779.68 1281.57,-1876.98 537.27,-51.64 966.57,239.14 1256.45,671.32 326.04,508.61 355.88,1109.27 177.43,1676.73 -83.69,266.15 -219.28,463.96 -415.21,660.78zm2436.31 -1338.95c-323.29,-775.58 -843.05,-1190.31 -1560.98,-1586.75 -576.79,-318.51 -1280.77,-513.51 -1941.94,-449.18 -371.94,38.06 -690.43,195.52 -967.8,442.51 -274.45,247.48 -433.72,551.52 -538.93,901.69 -157.65,533.41 -136.47,1121.8 71.45,1638.51 136.43,333.74 425.5,721.59 725.65,923.55 577.43,388.53 1324.37,346.36 1873.68,-75.85 248.07,-190.68 444.56,-474.9 579.93,-754.6 228.85,-481.07 257.53,-1043.56 146.14,-1559.17 -38.39,-177.72 -66.42,-336.27 118.36,-98.88 113.52,148.07 221.09,332.97 320.3,493.44 158.28,256.03 294.43,550.91 383.93,838.18 50.3,161.44 104.7,326.92 152.81,488.06 81.7,273.69 79.87,460.76 94.61,737.69 2.31,43.59 4.07,263.16 93.5,205.03 111.24,-72.31 283.12,-379.1 341.24,-505.53 126.39,-274.98 206.36,-582.26 221.92,-884.78 11.87,-261.61 -23.45,-507.93 -113.87,-753.92z"/>
   <path class="fil1" d="M8399.3 4304.45c-4.97,114.46 -45.26,108.79 -156.74,106.52 -191.61,-3.9 -367.44,-3.14 -557.94,-1.16 -454.79,4.73 -860.51,-39.07 -1111.52,-473.15 -173.35,-299.79 -172.64,-700.54 -83.53,-1026.99 28.88,-105.8 94.03,-248.01 166.52,-330.92 148.44,-158.58 395.75,-313.19 695.35,-329.27 298.58,-15.43 664.97,-22.55 961.32,-1.14 88.5,6.4 80.22,-8.13 83.59,71.39 21.7,528.01 11.53,1078.77 8.17,1608.69 -0.79,125.41 -2.33,250.66 -5.22,376.03zm7.39 -2513.64c-323.08,15.35 -650.43,28.96 -973.67,40.12 -232.2,6.75 -456.1,-23.18 -515.98,-289.98 -58.32,-259.91 174.69,-383.87 399.82,-397 173,-10.09 375.7,-5.24 551.74,-6.03 74.21,-0.37 504.3,-6.62 536.35,37.44 12.94,17.8 2.55,548.86 1.74,615.45zm-2698.75 328.35c138.94,-224.79 474.56,-562.8 678.18,-744.86 98.34,-87.93 147.52,-123.34 156.05,50.38 2.13,43.43 -0.09,85.96 -0.4,129.26 4.12,156.04 24.5,214.49 79.31,355.23 49.07,125.98 -29.52,170.77 -126.14,244.31 -158.07,120.66 -217.55,189.02 -287.17,372.52 -133.97,362.46 -190.64,993.53 -63.07,1361.31 76.94,221.77 189.34,452.32 372.44,604.59 246.63,205.09 556.38,315.48 874.04,336 50.24,3.25 99.86,4.63 150.18,5.4 139.34,2.06 1184.66,42.34 1209.16,-43.5 21.45,-92.6 17.91,-519.18 18.64,-630.95 6.17,-937.18 -4.48,-1876.39 -5.88,-2813.79 -0.16,-108.42 26.03,-519.57 -5.69,-585.82 -49.97,-69.92 -157.45,-46.78 -232.32,-47.22 -1293.52,-8.97 -1987.12,-78.71 -3116.67,682.79 -111.98,75.36 -547.76,359.9 -581.38,463.78 -9.53,112.6 135.57,284.11 195.57,381.08 55.99,90.48 160.45,327.39 239,374.7 81.24,48.95 147.36,-72.71 183.82,-128.68 79.68,-122.16 164.04,-232.78 250.19,-350.01l12.14 -16.52z"/>
   <path class="fil1" d="M4885.94 1200.24c103.04,-255.54 85.69,-515.72 -4.14,-772.92 -27.06,-77.49 -114.75,-317.09 -226.49,-290.34 -185.36,59.37 -288.89,455.72 -290.73,632.5 4.13,154.05 80.47,786.83 332.8,694.97 90.63,-32.99 146.07,-166.21 181.96,-248.91l6.6 -15.3z"/>
   <path class="fil1" d="M4499.4 4458.92c-36,-230.63 -90.67,-478.19 -150.16,-703.97 -15.07,-57.22 -271.42,-903.43 -324.07,-501.48 -40.66,310.33 60.71,837.53 185.17,1127.45 21.82,50.82 218.92,471.85 294.27,382.14 40.06,-47.7 4.3,-242.94 -5.21,-304.14z"/>
   <path class="fil0" d="M4254.79 682.17c-12.36,-110.01 -100.52,-184.45 -180.73,-255.77 -150.38,-133.72 -331.28,-201.81 -534.77,-176.86 -163.42,20.04 2.51,121.71 59.42,168.7 268.43,235.13 258.37,408.61 413.74,682.14 40.03,68 247.31,350.13 332.12,306.32 57.94,-29.93 -44.69,-251.87 -59.4,-308.32 -23.9,-91.75 -22.32,-187.96 -23.68,-282.18l-0.43 -28.48c-0.56,-36.52 -2.71,-69.22 -6.27,-105.55z"/>
   <path class="fil0" d="M5557.72 593.57c81.03,-114.93 136.7,-197.84 263.76,-259.38 36.52,-17.69 55.55,-35.33 40.77,-76.8 -183.32,-41.47 -428.2,24.44 -580.62,135.11 -108.7,78.93 -192.16,169.39 -204.42,308.52 -17.63,199.99 33.3,189.71 -40.44,412.9 -15.94,48.26 -106.64,254.44 -63.11,287.22 65.22,49.12 222.79,-130.48 257,-176.73 118.74,-160.52 181.96,-335.32 257.95,-515.77 16.55,-39.3 45.24,-80.01 69.11,-115.07z"/>
  </g>
 </g>
</svg>
